<?xml version="1.0" encoding="utf-8"?>
<!-- Generator: Adobe Illustrator 22.0.1, SVG Export Plug-In . SVG Version: 6.00 Build 0)  -->
<svg version="1.1" id="Capa_1" xmlns="http://www.w3.org/2000/svg" xmlns:xlink="http://www.w3.org/1999/xlink" x="0px" y="0px"
	 viewBox="0 0 600 800" style="enable-background:new 0 0 600 800;" xml:space="preserve">
<style type="text/css">
	.st0{fill:#00DAC2;}
	.st1{fill:#E0DF48;}
	.st2{fill:#2B1742;}
	.st3{fill:#FFFFFF;}
</style>
<g>
	<path class="st0" d="M573.7,655c2-4.9,3.8-9.8,5.4-14.8c16.1-47.1,23-97.7,20.3-147.1c-5.8-102.9-54.1-214.3-142.6-272.1
		c-96.4-63-237.9-61.9-333.1,2.1C17.1,294.8-20.6,419.3,10.6,539.4c6.6,25.3,16.7,50.1,27.8,74.5l0.7-1
		c7.5,15.3,16.4,30.3,26.7,44.8c27.4,38.7,61.4,69.2,98,90.4c22.4,13.9,47.3,25.6,74.2,34.5c110.3,36.3,221.8,13.8,281.7-49.2
		c23.5-22.1,41.4-48.2,53.1-76.2h0.1C573.2,656.5,573.4,655.7,573.7,655z"/>
	<circle class="st0" cx="88.1" cy="64.4" r="64.4"/>
</g>
<g>
	<rect x="206.1" y="356.1" class="st1" width="120" height="201.4"/>
	<g>
		<path class="st2" d="M106.3,468.1c-5.4,0-7.7-2.3-7.7-7.7v-2.3c0-5.4,2.3-7.7,7.7-7.7h8.7c5.4,0,7.7-2.3,7.7-7.7v-23.3
			c0-44.5,30.9-53.4,52.7-53.4h7.7c5.4,0,7.7,2.3,7.7,7.7v3.6c0,5.4-2.3,7.7-7.7,7.7h-7.7c-24.5,0-33.5,13.8-33.5,32.2V499
			c0,18.4,8.9,32.2,33.5,32.2h7.7c5.4,0,7.7,2.3,7.7,7.7v3.6c0,5.4-2.3,7.7-7.7,7.7h-7.7c-21.7,0-52.7-8.9-52.7-53.4v-21
			c0-5.4-2.3-7.7-7.7-7.7L106.3,468.1L106.3,468.1z"/>
		<path class="st3" d="M247.4,495.2c-5.9,0-8.4,2.6-8.4,8.7v38.6c0,5.4-2.3,7.7-7.7,7.7h-4.9c-4.9,0-6.9-2-6.9-6.9V378.2
			c0-4.9,2-6.9,6.9-6.9H265c34.8,0,52.4,29.6,52.4,59.6c0,30.4-15.3,63.6-51.9,64.4h-18.1V495.2z M238.9,466.6
			c0,6.1,2.6,8.7,8.4,8.7h21c18.9,0,29.1-22,29.1-41.9c0-20.2-10.5-40.6-32.5-42.4h-17.6c-5.9,0-8.4,2.6-8.4,8.4V466.6z"/>
		<path class="st2" d="M431.4,366.2c3.6,0,5.4,1,5.4,3.1c0,1-0.3,2.3-1,3.8l-78,170.2c-2,4.9-5.4,6.9-10.7,6.9H341
			c-3.6,0-5.4-1-5.4-3.1c0-1,0.3-2.3,1-3.8l78-170.2c2-4.9,5.4-6.9,10.7-6.9L431.4,366.2L431.4,366.2z"/>
		<path class="st2" d="M446.1,525.8c-2-2-3.1-3.8-3.1-5.6s1-3.6,2.8-5.4l42.7-43.7c3.6-3.8,5.4-8.2,5.4-11.5
			c0-6.9-5.1-11.8-5.1-11.8l-44.2-43.2c-1.8-1.8-2.8-3.3-2.8-5.1s1-3.3,2.8-5.4l2.6-2.6c1.8-1.8,3.3-2.6,4.9-2.6
			c1.8,0,3.6,0.8,5.4,2.6l44,42.9c0,0,14.1,11.2,14.1,26.3c0,7.2-5.1,15.3-13,23.5l-42.9,44c-1.8,1.8-3.6,2.8-5.4,2.8
			c-1.5,0-3.1-0.8-4.6-2.3L446.1,525.8z"/>
	</g>
</g>
<g>
	<path class="st3" d="M164.4,651.2c-2.1,0-3,0.9-3,3.1V668c0,1.9-0.8,2.7-2.7,2.7H157c-1.7,0-2.5-0.7-2.5-2.5v-58.9
		c0-1.7,0.7-2.5,2.5-2.5h13.8c12.4,0,18.7,10.6,18.7,21.2c0,10.8-5.5,22.7-18.5,23H164.4z M161.4,640.9c0,2.2,0.9,3.1,3,3.1h7.5
		c6.7,0,10.4-7.8,10.4-15c0-7.2-3.7-14.5-11.6-15.1h-6.3c-2.1,0-3,0.9-3,3V640.9z"/>
	<path class="st3" d="M217.1,625.2c12.7,0,12.7,12.7,12.7,12.7v20.2c0,0,0,12.7-12.7,12.7H208c-12.7,0-12.7-12.7-12.7-12.7v-20.2
		c0,0,0-12.7,12.7-12.7H217.1z M208,632.3c-5.6,0-5.6,5.6-5.6,5.6v20.2c0,0,0,5.6,5.6,5.6h9.1c5.6,0,5.6-5.6,5.6-5.6v-20.2
		c0,0,0-5.6-5.6-5.6H208z"/>
	<path class="st3" d="M239.6,606.9h12.1c1.9,0,2.7,1.2,2.7,3.4v51.3c0,1.9,0.8,2.7,2.7,2.7h4.9c1.9,0,2.7,1.1,2.7,3.3
		c0,1.9-0.8,3.1-2.7,3.1h-22.5c-1.9,0-2.7-1.2-2.7-3.4c0-1.9,0.8-3,2.7-3h4.8c1.9,0,2.7-0.8,2.7-2.7v-45.6c0-1.9-0.8-2.7-2.7-2.7
		h-4.8c-1.9,0-2.7-1.1-2.7-3C236.8,608.1,237.6,606.9,239.6,606.9z"/>
	<path class="st3" d="M297.5,655.7l-0.1-28c0-1.9,0.8-2.7,2.7-2.7h1.6c1.9,0,2.7,0.8,2.7,2.7l0.1,49c0,2-1.3,12.3-12.7,12.3h-11.8
		c-1.9,0-2.7-0.8-2.7-2.7v-1.6c0-1.9,0.8-2.7,2.7-2.7h11.8c4.7,0,5.6-4.1,5.6-5.6v-10.1c0-0.6-0.2-0.9-0.4-0.9s-0.4,0.3-0.5,0.5
		c-1.3,2.7-5.7,5.4-11.1,5.4c-12.7,0-12.7-12.7-12.7-12.7v-30.7c0-1.9,0.8-2.7,2.7-2.7h1.6c1.9,0,2.7,0.8,2.7,2.7v30.7
		c0,0,0,5.6,8.3,5.6C292.8,664,297.5,661.3,297.5,655.7z"/>
	<path class="st3" d="M321.2,684.6c0-1.9,0.8-2.7,2.7-2.7h11.8c4.7,0,5.6-4.1,5.6-5.6v-13.8c0-0.6-0.2-0.9-0.4-0.9s-0.4,0.3-0.5,0.5
		c-1.3,2.7-5.7,5.4-11.1,5.4c-12.7,0-12.7-12.7-12.7-12.7v-17c0,0,0-12.7,12.7-12.7h21.8c1.9,0,2.7,0.8,2.7,2.7v0.7
		c0,1.9-0.8,2.7-2.7,2.7h-5c-0.6,0-0.9,0.2-0.9,0.4c0,0.2,0.3,0.4,0.5,0.5c2.7,1.3,2.6,4.7,2.6,4.7l0.1,39.8c0,2-1.3,12.3-12.7,12.3
		h-11.8c-1.9,0-2.7-0.8-2.7-2.7V684.6z M341.2,652.1l-0.1-14.2c0-2.9-2.3-5.6-5.6-5.6h-6.3c-5.6,0-5.6,5.6-5.6,5.6v17
		c0,0,0,5.6,8.3,5.6C336.6,660.4,341.2,657.6,341.2,652.1z"/>
	<path class="st3" d="M365.4,606.9h12.1c1.9,0,2.7,1.2,2.7,3.4v51.3c0,1.9,0.8,2.7,2.7,2.7h4.9c1.9,0,2.7,1.1,2.7,3.3
		c0,1.9-0.8,3.1-2.7,3.1h-22.5c-1.9,0-2.7-1.2-2.7-3.4c0-1.9,0.8-3,2.7-3h4.8c1.9,0,2.7-0.8,2.7-2.7v-45.6c0-1.9-0.8-2.7-2.7-2.7
		h-4.8c-1.9,0-2.7-1.1-2.7-3C362.7,608.1,363.5,606.9,365.4,606.9z"/>
	<path class="st3" d="M419.5,625.2c12.7,0,12.7,12.7,12.7,12.7v20.2c0,0,0,12.7-12.7,12.7h-9.1c-12.7,0-12.7-12.7-12.7-12.7v-20.2
		c0,0,0-12.7,12.7-12.7H419.5z M410.4,632.3c-5.6,0-5.6,5.6-5.6,5.6v20.2c0,0,0,5.6,5.6,5.6h9.1c5.6,0,5.6-5.6,5.6-5.6v-20.2
		c0,0,0-5.6-5.6-5.6H410.4z"/>
	<path class="st3" d="M439.9,627.5c0-1.9,0.8-2.7,2.7-2.7h2.6c1.9,0,2.7-0.8,2.7-2.7v-9.6c0-1.9,0.9-2.7,2.8-2.7h1.8
		c1.9,0,2.7,0.8,2.7,2.7v9.6c0,1.9,0.6,2.7,2.6,2.7h6.4c1.9,0,2.7,0.8,2.7,2.7v1.4c0,1.9-0.8,2.7-2.7,2.7h-6.5
		c-1.9,0-2.7,0.8-2.7,2.7v24.1c0.1,1.2,0.8,5.3,5.6,5.3h3.7c1.9,0,2.7,0.8,2.7,2.7v1.6c0,1.9-0.8,2.7-2.7,2.7h-3.7
		c-11.3,0-12.7-10-12.7-12.2v-24.3c0-1.9-0.8-2.7-2.7-2.7h-2.6c-1.9,0-2.7-0.8-2.7-2.7V627.5z"/>
</g>
</svg>
