<?xml version="1.0" encoding="utf-8"?>
<!-- Generator: Adobe Illustrator 22.0.1, SVG Export Plug-In . SVG Version: 6.00 Build 0)  -->
<svg version="1.1" id="Capa_1" xmlns="http://www.w3.org/2000/svg" xmlns:xlink="http://www.w3.org/1999/xlink" x="0px" y="0px"
	 viewBox="0 0 84.5 106.3" style="enable-background:new 0 0 84.5 106.3;" xml:space="preserve">
<style type="text/css">
	.st0{fill:#7837DD;}
	.st1{fill:#FFFFFF;}
</style>
<g>
	<path class="st0" d="M80.8,67.7c0.3-0.7,0.5-1.4,0.8-2.1c2.3-6.6,3.2-13.8,2.9-20.7c-0.8-14.5-7.6-30.2-20.1-38.3
		c-13.6-8.9-33.6-8.8-47,0.3C2.4,17-2.9,34.5,1.5,51.4c0.9,3.6,2.3,7.1,3.9,10.5l0.1-0.1c1.1,2.2,2.3,4.3,3.8,6.3
		c3.9,5.5,8.6,9.7,13.8,12.7c3.2,2,6.7,3.6,10.4,4.9c15.5,5.1,31.2,1.9,39.7-6.9c3.3-3.1,5.8-6.8,7.5-10.7l0,0
		C80.7,67.9,80.8,67.8,80.8,67.7z"/>
	<g>
		<g>
			<path class="st1" d="M37.5,52.7c-1.5,0-2.1,0.6-2.1,2.2v9.7c0,1.3-0.6,1.9-1.9,1.9h-1.2c-1.2,0-1.7-0.5-1.7-1.7V23.3
				c0-1.2,0.5-1.7,1.7-1.7H42c8.7,0,13.2,7.5,13.2,15c0,7.6-3.9,16-13,16.2L37.5,52.7L37.5,52.7z M35.3,45.5c0,1.5,0.6,2.2,2.1,2.2
				h5.3c4.8,0,7.3-5.5,7.3-10.5c0-5.1-2.6-10.2-8.2-10.7h-4.4c-1.5,0-2.1,0.6-2.1,2.1C35.3,28.6,35.3,45.5,35.3,45.5z"/>
		</g>
	</g>
	<circle class="st0" cx="9.1" cy="97.2" r="9.1"/>
</g>
</svg>
