<?xml version="1.0" encoding="utf-8"?>
<!-- Generator: Adobe Illustrator 22.0.1, SVG Export Plug-In . SVG Version: 6.00 Build 0)  -->
<svg version="1.1" id="Capa_1" xmlns="http://www.w3.org/2000/svg" xmlns:xlink="http://www.w3.org/1999/xlink" x="0px" y="0px"
	 viewBox="0 0 330.4 236.2" style="enable-background:new 0 0 330.4 236.2;" xml:space="preserve">
<style type="text/css">
	.st0{fill:#28E5C9;}
</style>
<g>
	<path class="st0" d="M1075.1,352.3c-0.8-34.1-27-67.2-66.6-67.2c-48.4,0-64.1,47.2-74.2,86.4c-4.8,18.8-15.7,20.7-33.4,20.3
		c-36.8-0.8-71.4,46.4-41.1,76.8c9,9,22.1,13.1,34.7,10.9c22.1-3.9,37.2-23.1,52.8-37.6c16.6-15.5,40.8-21,62.9-22.3
		c15.5-0.9,29.8-5.7,41.7-15.9C1068.4,389.6,1075.5,370.8,1075.1,352.3z"/>
	<path class="st0" d="M848.3,480.1c0,6.7-5.4,12.2-12.2,12.2c-6.7,0-12.2-5.4-12.2-12.2c0-6.7,5.4-12.2,12.2-12.2
		C842.8,468,848.3,473.4,848.3,480.1z"/>
	<circle class="st0" cx="906.8" cy="368.2" r="6.1"/>
	<circle class="st0" cx="1104.4" cy="449.2" r="8.9"/>
</g>
<g>
	<path class="st0" d="M285.1,77.8c-0.8-38.6-30.5-76.1-75.3-76.1c-54.8,0-72.6,53.4-84,97.7c-5.5,21.3-17.8,23.4-37.7,23
		c-41.6-0.9-80.8,52.6-46.5,86.8c10.2,10.2,25,14.9,39.2,12.3c25-4.5,42.1-26.2,59.7-42.5c18.8-17.5,46.2-23.8,71.1-25.3
		c17.5-1.1,33.7-6.5,47.2-18C277.6,120,285.6,98.7,285.1,77.8z"/>
	<path class="st0" d="M28.5,222.4c0,7.6-6.2,13.8-13.8,13.8C7.2,236.2,1,230,1,222.4c0-7.6,6.2-13.8,13.8-13.8
		C22.4,208.7,28.5,214.8,28.5,222.4z"/>
	<circle class="st0" cx="94.7" cy="95.8" r="6.9"/>
	<circle class="st0" cx="318.4" cy="187.4" r="10"/>
</g>
</svg>
