<?xml version="1.0" encoding="utf-8"?>
<!-- Generator: Adobe Illustrator 22.1.0, SVG Export Plug-In . SVG Version: 6.00 Build 0)  -->
<svg version="1.1" id="Capa_1" xmlns="http://www.w3.org/2000/svg" xmlns:xlink="http://www.w3.org/1999/xlink" x="0px" y="0px"
	 viewBox="0 0 315.3 857" style="enable-background:new 0 0 315.3 857;" xml:space="preserve">
<style type="text/css">
	.st0{fill:#D0CF4C;}
</style>
<g>
	<circle class="st0" cx="63.3" cy="721.5" r="18.9"/>
	<path class="st0" d="M123.4,736c-5.2,0-9.4,4.2-9.4,9.4s4.2,9.4,9.4,9.4s9.4-4.2,9.4-9.4S128.6,736,123.4,736z"/>
	<path class="st0" d="M305.9,553.5c-5.2,0-9.4,4.2-9.4,9.4c0,5.2,4.2,9.4,9.4,9.4c5.2,0,9.4-4.2,9.4-9.4
		C315.3,557.7,311.1,553.5,305.9,553.5z"/>
	<circle class="st0" cx="63.3" cy="135.8" r="18.9"/>
	<path class="st0" d="M123.4,121.3c5.2,0,9.4-4.2,9.4-9.4c0-5.2-4.2-9.4-9.4-9.4s-9.4,4.2-9.4,9.4
		C113.9,117,118.2,121.3,123.4,121.3z"/>
	<path class="st0" d="M246.9,406.8c-10.2,0-18.4,8.2-18.4,18.4c0,10.2,8.2,18.4,18.4,18.4c10.2,0,18.4-8.2,18.4-18.4
		C265.3,415,257.1,406.8,246.9,406.8z"/>
	<path class="st0" d="M231.5,205.9c-37-38.3-87.6-34.6-136.6-33.3c-22.9,0.6-55.6,0.9-68.7-22.1C10.3,122.7,40,113.8,52.4,95.4
		c13-19.3,13.2-36.2,6-50.6C50.1,28.2,32.1,15,12.6,5.2C8.7,3.3,4.4,1.7,0,0.3v428.2v0.2V857c4.4-1.4,8.7-3,12.6-4.9
		c19.5-9.7,37.5-23,45.8-39.5c7.2-14.4,7.1-31.3-6-50.6c-12.4-18.4-42.1-27.3-26.2-55.2c13.1-23,45.8-22.7,68.7-22.1
		c49,1.3,99.6,5.1,136.6-33.3c29.1-30.1,40.4-77.5,30.9-118.7c-5.7-24.6-18.5-47.3-39.5-61.9c-11.3-7.9-33.6-16-41-30.2
		c-1.8-3.1-2.8-7.3-2.8-12c0-4.4,1-8.4,2.6-11.5c7.1-14.5,29.7-22.6,41.2-30.6c21-14.6,33.8-37.3,39.5-61.9
		C271.9,283.4,260.6,236.1,231.5,205.9z"/>
</g>
</svg>
