<?xml version="1.0" encoding="utf-8"?>
<!-- Generator: Adobe Illustrator 22.1.0, SVG Export Plug-In . SVG Version: 6.00 Build 0)  -->
<svg version="1.1" id="Capa_1" xmlns="http://www.w3.org/2000/svg" xmlns:xlink="http://www.w3.org/1999/xlink" x="0px" y="0px"
	 viewBox="0 0 137 182.7" style="enable-background:new 0 0 137 182.7;" xml:space="preserve">
<style type="text/css">
	.st0{fill:#D5D44D;}
</style>
<g>
	<path class="st0" d="M6,149.6c-0.5-1.1-0.9-2.2-1.2-3.4c-3.7-10.8-5.3-22.3-4.6-33.6c1.3-23.5,12.4-48.9,32.6-62.1
		c22-14.4,54.3-14.1,76.1,0.5c24.4,16.4,33,44.8,25.8,72.2c-1.5,5.8-3.8,11.4-6.4,17l-0.2-0.2c-1.7,3.5-3.7,6.9-6.1,10.2
		c-6.3,8.8-14,15.8-22.4,20.6c-5.1,3.2-10.8,5.9-16.9,7.9c-25.2,8.3-50.6,3.2-64.3-11.2c-5.4-5-9.4-11-12.1-17.4l0,0
		C6.1,149.9,6.1,149.7,6,149.6z"/>
	<circle class="st0" cx="116.9" cy="14.7" r="14.7"/>
</g>
</svg>
