<?xml version="1.0" encoding="utf-8"?>
<!-- Generator: Adobe Illustrator 22.0.1, SVG Export Plug-In . SVG Version: 6.00 Build 0)  -->
<svg version="1.1" id="Capa_1" xmlns="http://www.w3.org/2000/svg" xmlns:xlink="http://www.w3.org/1999/xlink" x="0px" y="0px"
	 viewBox="0 0 563.2 312.2" style="enable-background:new 0 0 563.2 312.2;" xml:space="preserve">
<style type="text/css">
	.st0{fill:#5925D8;}
</style>
<g>
	<path class="st0" d="M348.4,0c-37.6,0-21.5,61.1-17.5,81.3c4.9,24.4,17.3,50,39.2,63.4c28.6,17.5,56.8,1.7,87.3,6.8
		c17,2.8,32.7,15.8,35.8,32.8c5.3,29.1-28.1,41.7-34.1,66.7c-10.4,43,33.9,31.2,54.1,11.1c3.8-3.8,50-48.4,50-32.2
		c0-0.2,0-229.8,0-229.8S348.8,0,348.4,0z"/>
	<g>
		<circle class="st0" cx="24.4" cy="61.3" r="24.4"/>
	</g>
	<path class="st0" d="M452.6,300c0,6.7-5.5,12.2-12.2,12.2s-12.2-5.5-12.2-12.2s5.5-12.2,12.2-12.2S452.6,293.3,452.6,300z"/>
</g>
</svg>
