<?xml version="1.0" encoding="utf-8"?>
<!-- Generator: Adobe Illustrator 22.0.1, SVG Export Plug-In . SVG Version: 6.00 Build 0)  -->
<svg version="1.1" id="Capa_1" xmlns="http://www.w3.org/2000/svg" xmlns:xlink="http://www.w3.org/1999/xlink" x="0px" y="0px"
	 viewBox="0 0 318.1 269.6" style="enable-background:new 0 0 318.1 269.6;" xml:space="preserve">
<style type="text/css">
	.st0{fill:#7837DD;}
</style>
<g>
	<path class="st0" d="M63.1,62.8C71,24.7,107.3-6.9,151.7,1.3c54.3,10.1,62.1,66.2,65.2,112.2c1.5,22.1,13.3,26.4,33.2,29.7
		c41.3,6.7,70.3,66.9,30.1,94.5c-12,8.2-27.5,10.1-41.1,5c-23.9-9-36.9-33.7-51.3-53.1c-15.4-20.8-41.3-32-65.8-38.1
		c-17.1-4.3-32.2-12.6-43.5-26.5C62.8,106,58.8,83.5,63.1,62.8z"/>
	<path class="st0" d="M290.6,253.2c-1.4,7.5,3.6,14.8,11.1,16.1c7.5,1.4,14.8-3.6,16.1-11.1c1.4-7.5-3.6-14.8-11.1-16.1
		C299.3,240.7,292,245.7,290.6,253.2z"/>
	<circle class="st0" cx="248.4" cy="115.7" r="6.9"/>
	<circle class="st0" cx="10.1" cy="165.2" r="10.1"/>
</g>
</svg>
