<?xml version="1.0" encoding="utf-8"?>
<!-- Generator: Adobe Illustrator 22.1.0, SVG Export Plug-In . SVG Version: 6.00 Build 0)  -->
<svg version="1.1" id="Capa_1" xmlns="http://www.w3.org/2000/svg" xmlns:xlink="http://www.w3.org/1999/xlink" x="0px" y="0px"
	 viewBox="0 0 638.8 515.9" style="enable-background:new 0 0 638.8 515.9;" xml:space="preserve">
<style type="text/css">
	.st0{fill:#3CA09C;}
</style>
<g>
	<path class="st0" d="M474.3,79.5c-16.5,0-29.9-13.4-29.9-29.9c0-16.5,13.4-29.9,29.9-29.9c16.5,0,29.9,13.4,29.9,29.9
		C504.1,66.1,490.8,79.5,474.3,79.5z"/>
	<path class="st0" d="M269.6,406.8c-8.2,0-14.9-6.7-14.9-14.9c0-8.2,6.7-14.9,14.9-14.9c8.2,0,14.9,6.7,14.9,14.9
		C284.6,400.1,277.9,406.8,269.6,406.8z"/>
	<path class="st0" d="M0,515.9c3.7-30.4,29.6-54.1,61-54.1c19.6,0,37.1,9.2,48.3,23.5v0c1.7,1.6,3.3,3.1,5.1,4.6
		c15.4,11.5,30.7,19.2,50,15.4c48.1-9.6,57.3-54.3,31-90.4c-10.9-15-22.6-33.1-16.7-50.6c5-14.8,26.5-25.3,40.7-16.6
		c32.8,20.2-0.6,77.4,45.8,92c15.3,4.8,33.2-0.4,43.5-12.6c18.2-21.6,1.5-51.3,15.1-76.1c19.4-35.3,80.2-36.6,115.5-42.8
		c42.6-7.5,91.2-15.3,124.9-45c67.1-59.2-38.4-129.3-38.4-188.3c0-50.4,61.7-68.5,113.1-74.8v515.9H0z"/>
</g>
</svg>
